# xmcd CD database file generated by OrangeCD 6.5
#
# Track frame offsets:
#	150
#	15350
#	34615
#	52575
#	66420
#	78360
#	94688
#	111860
#	125840
#	140860
#
# Disc length: 2057 seconds
#
# Revision: 2
# Processed by: cddbd v1.5.2PL0 Copyright (c) Steve Scherf et al.
# Submitted via: OrangeCD 6.5
#
DISCID=8008070a
DTITLE=Various Artist - Power Country
DYEAR=1996
DGENRE=Country
TTITLE0=Joe Diffie - Home
TTITLE1=Rodney Crowell - Now that we're alone
TTITLE2=Shelby Lynne - Things are tough all over
TTITLE3=Mike Reid - Till you were gone
TTITLE4=Rick Skaggs - He was on somethin' (So he made you)
TTITLE5=Shanandoah - Ghost in this house
TTITLE6=Doug Stone - My hats off to him
TTITLE7=Tim Ryan - Dance in circles
TTITLE8=Sweethearts of the Rodeo - This heart
TTITLE9=Vern Gosdin - Is it raining at your house
EXTD=
EXTT0=
EXTT1=
EXTT2=
EXTT3=
EXTT4=
EXTT5=
EXTT6=
EXTT7=
EXTT8=
EXTT9=
PLAYORDER=
